<?xml version="1.0" encoding="UTF-8"?>
<svg xmlns="http://www.w3.org/2000/svg" viewBox="0 0 512 512">
  <path fill="#2563eb" d="M256,0C114.615,0,0,114.615,0,256s114.615,256,256,256s256-114.615,256-256S397.385,0,256,0z"/>
  <path fill="#FFFFFF" d="M256,128c-70.692,0-128,57.308-128,128s57.308,128,128,128s128-57.308,128-128S326.692,128,256,128z
     M256,352c-53.02,0-96-42.98-96-96s42.98-96,96-96s96,42.98,96,96S309.02,352,256,352z"/>
  <path fill="#FFFFFF" d="M256,192c-35.346,0-64,28.654-64,64s28.654,64,64,64s64-28.654,64-64S291.346,192,256,192z M256,288
    c-17.673,0-32-14.327-32-32s14.327-32,32-32s32,14.327,32,32S273.673,288,256,288z"/>
  <path fill="#FFFFFF" d="M128,224h-32c-8.837,0-16,7.163-16,16s7.163,16,16,16h32c8.837,0,16-7.163,16-16S136.837,224,128,224z"/>
  <path fill="#FFFFFF" d="M416,224h-32c-8.837,0-16,7.163-16,16s7.163,16,16,16h32c8.837,0,16-7.163,16-16S424.837,224,416,224z"/>
  <path fill="#FFFFFF" d="M256,96c-8.837,0-16,7.163-16,16v32c0,8.837,7.163,16,16,16s16-7.163,16-16v-32
    C272,103.163,264.837,96,256,96z"/>
  <path fill="#FFFFFF" d="M256,352c-8.837,0-16,7.163-16,16v32c0,8.837,7.163,16,16,16s16-7.163,16-16v-32
    C272,359.163,264.837,352,256,352z"/>
</svg>
