<?xml version="1.0" encoding="UTF-8"?>
<svg xmlns="http://www.w3.org/2000/svg" viewBox="0 0 512 512">
  <path fill="#2563eb" d="M256,0C114.615,0,0,114.615,0,256s114.615,256,256,256s256-114.615,256-256S397.385,0,256,0z"/>
  <path fill="#FFFFFF" d="M256,64c-105.87,0-192,86.13-192,192s86.13,192,192,192s192-86.13,192-192S361.87,64,256,64z M256,384
    c-70.58,0-128-57.42-128-128s57.42-128,128-128s128,57.42,128,128S326.58,384,256,384z"/>
  <path fill="#FFFFFF" d="M256,160c-53.02,0-96,42.98-96,96s42.98,96,96,96s96-42.98,96-96S309.02,160,256,160z M256,320
    c-35.346,0-64-28.654-64-64s28.654-64,64-64s64,28.654,64,64S291.346,320,256,320z"/>
  <circle fill="#FFFFFF" cx="256" cy="256" r="32"/>
  <path fill="#FFFFFF" d="M368,224c-8.837,0-16,7.163-16,16s7.163,16,16,16s16-7.163,16-16S376.837,224,368,224z"/>
  <path fill="#FFFFFF" d="M144,224c-8.837,0-16,7.163-16,16s7.163,16,16,16s16-7.163,16-16S152.837,224,144,224z"/>
  <path fill="#FFFFFF" d="M256,112c-8.837,0-16,7.163-16,16s7.163,16,16,16s16-7.163,16-16S264.837,112,256,112z"/>
  <path fill="#FFFFFF" d="M256,368c-8.837,0-16,7.163-16,16s7.163,16,16,16s16-7.163,16-16S264.837,368,256,368z"/>
</svg>
