<?xml version="1.0" encoding="UTF-8"?>
<svg xmlns="http://www.w3.org/2000/svg" viewBox="0 0 512 512">
  <path fill="#2563eb" d="M256,0C114.615,0,0,114.615,0,256s114.615,256,256,256s256-114.615,256-256S397.385,0,256,0z"/>
  <path fill="#FFFFFF" d="M256,64c-105.87,0-192,86.13-192,192s86.13,192,192,192s192-86.13,192-192S361.87,64,256,64z M128,256
    c0-70.692,57.308-128,128-128c70.692,0,128,57.308,128,128c0,70.692-57.308,128-128,128C185.308,384,128,326.692,128,256z"/>
  <path fill="#FFFFFF" d="M256,160c-53.02,0-96,42.98-96,96s42.98,96,96,96s96-42.98,96-96S309.02,160,256,160z M256,320
    c-35.346,0-64-28.654-64-64s28.654-64,64-64s64,28.654,64,64S291.346,320,256,320z"/>
  <path fill="#FFFFFF" d="M256,224c-17.673,0-32,14.327-32,32s14.327,32,32,32s32-14.327,32-32S273.673,224,256,224z"/>
  <path fill="#FFFFFF" d="M256,96c-8.837,0-16,7.163-16,16v32c0,8.837,7.163,16,16,16s16-7.163,16-16v-32
    C272,103.163,264.837,96,256,96z"/>
  <path fill="#FFFFFF" d="M256,352c-8.837,0-16,7.163-16,16v32c0,8.837,7.163,16,16,16s16-7.163,16-16v-32
    C272,359.163,264.837,352,256,352z"/>
  <path fill="#FFFFFF" d="M368,240h-32c-8.837,0-16,7.163-16,16s7.163,16,16,16h32c8.837,0,16-7.163,16-16
    S376.837,240,368,240z"/>
  <path fill="#FFFFFF" d="M176,240h-32c-8.837,0-16,7.163-16,16s7.163,16,16,16h32c8.837,0,16-7.163,16-16
    S184.837,240,176,240z"/>
</svg>
