<?xml version="1.0" encoding="UTF-8"?>
<svg xmlns="http://www.w3.org/2000/svg" viewBox="0 0 512 512">
  <path fill="#2563eb" d="M256,0C114.615,0,0,114.615,0,256s114.615,256,256,256s256-114.615,256-256S397.385,0,256,0z M256,448
    c-106.039,0-192-85.961-192-192S149.961,64,256,64s192,85.961,192,192S362.039,448,256,448z"/>
  <path fill="#2563eb" d="M256,128c-70.693,0-128,57.307-128,128s57.307,128,128,128s128-57.307,128-128S326.693,128,256,128z
     M256,320c-35.346,0-64-28.654-64-64s28.654-64,64-64s64,28.654,64,64S291.346,320,256,320z"/>
  <circle fill="#2563eb" cx="256" cy="256" r="32"/>
  <path fill="#2563eb" d="M256,96c-8.837,0-16,7.163-16,16v32c0,8.837,7.163,16,16,16s16-7.163,16-16v-32
    C272,103.163,264.837,96,256,96z"/>
  <path fill="#2563eb" d="M256,352c-8.837,0-16,7.163-16,16v32c0,8.837,7.163,16,16,16s16-7.163,16-16v-32
    C272,359.163,264.837,352,256,352z"/>
  <path fill="#2563eb" d="M416,240h-32c-8.837,0-16,7.163-16,16s7.163,16,16,16h32c8.837,0,16-7.163,16-16
    S424.837,240,416,240z"/>
  <path fill="#2563eb" d="M128,240H96c-8.837,0-16,7.163-16,16s7.163,16,16,16h32c8.837,0,16-7.163,16-16
    S136.837,240,128,240z"/>
</svg>
