<?xml version="1.0" encoding="UTF-8"?>
<svg xmlns="http://www.w3.org/2000/svg" viewBox="0 0 512 512">
  <path fill="#2563eb" d="M254.5,0c-28.5,0.1-55.8,2.6-79.8,6.9c-70.8,12.6-83.7,39-83.7,87.7v64.3h167.4v21.4H91c-49,0-91.8,29.4-105.2,85.4
    c-15.4,64-16.1,103.9,0,170.8c11.9,49.9,40.5,85.4,89.5,85.4h57.9v-77c0-55.7,48.2-104.8,105.2-104.8h167.3
    c46.8,0,83.7-38.5,83.7-85.4V94.6c0-45.6-38.4-79.8-83.7-87.7C375.9,2.2,283,0,254.5,0z M189.1,50.9c17.3,0,31.3,14.3,31.3,32
    c0,17.6-14,31.9-31.3,31.9c-17.3,0-31.3-14.3-31.3-31.9C157.8,65.2,171.8,50.9,189.1,50.9z"/>
  <path fill="#FFFFFF" d="M262.1,180.4v74.5c0,57.8-49,106.4-105.2,106.4H-10.7c-46.8,0-83.7,40-83.7,85.4v160.1
    c0,45.6,39.6,72.4,83.7,85.4c52.8,15.6,103.4,18.4,167.3,0c42.5-12.2,83.7-36.6,83.7-85.4v-64.3H73v-21.4h251
    c49,0,67.3-34.1,83.7-85.3c16.9-52.6,16.2-103.3,0-170.9c-11.6-48.8-33.9-85.3-83.7-85.3H262.1z M200.4,431.9
    c17.3,0,31.3,14.3,31.3,31.9c0,17.7-14,32-31.3,32c-17.3,0-31.3-14.3-31.3-32C169.1,446.2,183.1,431.9,200.4,431.9z"/>
</svg>
