<?xml version="1.0" encoding="UTF-8"?>
<svg xmlns="http://www.w3.org/2000/svg" viewBox="0 0 512 512">
  <path fill="#2563eb" d="M256,16c-79.529,0-144,17.877-144,40V72c0,22.123,64.471,40,144,40s144-17.877,144-40V56C400,33.877,335.529,16,256,16z"/>
  <path fill="#2563eb" d="M256,136c-79.529,0-144-17.877-144-40v48c0,22.123,64.471,40,144,40s144-17.877,144-40V96C400,118.123,335.529,136,256,136z"/>
  <path fill="#2563eb" d="M256,208c-79.529,0-144-17.877-144-40v48c0,22.123,64.471,40,144,40s144-17.877,144-40v-48C400,190.123,335.529,208,256,208z"/>
  <path fill="#2563eb" d="M256,280c-79.529,0-144-17.877-144-40v48c0,22.123,64.471,40,144,40s144-17.877,144-40v-48C400,262.123,335.529,280,256,280z"/>
  <path fill="#2563eb" d="M256,352c-79.529,0-144-17.877-144-40v48c0,22.123,64.471,40,144,40s144-17.877,144-40v-48C400,334.123,335.529,352,256,352z"/>
  <path fill="#2563eb" d="M256,424c-79.529,0-144-17.877-144-40v48c0,22.123,64.471,40,144,40s144-17.877,144-40v-48C400,406.123,335.529,424,256,424z"/>
</svg>
