<?xml version="1.0" encoding="UTF-8"?>
<svg xmlns="http://www.w3.org/2000/svg" viewBox="0 0 256 256">
  <path fill="#2563eb" d="M191.97,39.7l-138.9,138.9l-31.04-31.04L0,158.59l0,0v39.7l0,0l22.03,22.03l0,0l22.03-22.03l0,0l138.9-138.9l0,0l31.04,31.04L256,68.4l0,0v-39.7l0,0l-22.03-22.03l0,0l-22.03,22.03L191.97,39.7z M191.97,107.79l-69.45,69.45l0,0l-31.04-31.04L22.03,215.65l0,0L0,193.62l0,0l69.45-69.45l0,0l31.04,31.04l69.45-69.45l0,0l31.04,31.04L256,61.73l0,0l-22.03-22.03l0,0l-31.04,31.04L191.97,107.79z"/>
</svg>
